<svg width="322" height="277" viewBox="0 0 322 277" fill="none" xmlns="http://www.w3.org/2000/svg">
<rect width="322" height="277" fill="#E5E5E5"/>
<path d="M322 0H0V277H322V0Z" fill="#EBFFF1"/>
<path d="M14.179 60.532H307.821C315.646 60.532 322 66.886 322 74.712V202.288C322 210.114 315.646 216.468 307.821 216.468H14.179C6.354 216.468 0 210.114 0 202.288V74.712C0 66.886 6.354 60.532 14.179 60.532Z" fill="#C9DADF"/>
<path d="M18.629 69.135H303.371C308.133 69.135 312 73.002 312 77.764V199.903C312 204.666 308.133 208.533 303.371 208.533H18.629C13.867 208.533 10 204.666 10 199.903V77.764C10 73.002 13.867 69.135 18.629 69.135Z" fill="#6C9AA6"/>
<path fill-rule="evenodd" clip-rule="evenodd" d="M148.509 111.959C148.509 111.013 148.872 110.243 149.598 109.649C150.324 109.055 151.193 108.758 152.205 108.758C153.217 108.758 154.262 109 155.34 109.484C155.45 109.22 155.709 108.455 156.116 107.19C156.523 105.925 156.902 104.264 157.254 102.207C157.606 100.15 157.782 98.693 157.782 97.835C157.782 96.977 157.54 96.328 157.056 95.888V95.558C158.332 94.898 159.828 94.568 161.544 94.568L162.93 94.7C163.04 94.964 163.095 95.47 163.095 96.218C163.095 98.682 162.655 101.283 161.775 104.022C160.895 106.761 159.751 109.099 158.343 111.035C159.927 111.871 161.236 112.289 162.27 112.289C163.304 112.289 164.234 111.821 165.059 110.886C165.884 109.951 166.527 108.791 166.989 107.405C167.979 104.545 168.474 101.954 168.474 99.633C168.474 97.3123 167.858 95.591 166.626 94.469C165.394 93.347 163.563 92.786 161.132 92.786C158.701 92.786 156.457 93.479 154.4 94.865C152.343 96.251 151.314 97.857 151.314 99.683C151.314 100.453 151.501 101.025 151.875 101.399C152.249 101.773 152.755 102.07 153.393 102.29C153.371 103.126 153.129 103.973 152.667 104.831C151.765 104.655 150.951 104.154 150.225 103.329C149.499 102.504 149.136 101.377 149.136 99.947C149.136 97.307 150.39 95.1123 152.898 93.363C155.406 91.6143 158.541 90.74 162.303 90.74C165.471 90.74 168.1 91.477 170.19 92.951C171.246 93.699 172.066 94.7273 172.649 96.036C173.232 97.3453 173.523 99.0173 173.523 101.052C173.523 103.087 173.072 105.199 172.17 107.388C171.268 109.577 169.954 111.409 168.227 112.883C166.5 114.357 164.641 115.094 162.65 115.094C160.659 115.094 158.629 114.401 156.561 113.015C155.087 114.379 153.591 115.061 152.073 115.061C151.039 115.061 150.187 114.78 149.516 114.219C148.845 113.658 148.509 112.905 148.509 111.959ZM151.974 112.553C152.788 112.553 153.514 112.179 154.152 111.431C153.338 110.969 152.689 110.738 152.205 110.738C151.193 110.738 150.687 111.035 150.687 111.629C150.687 111.893 150.797 112.113 151.017 112.289C151.237 112.465 151.556 112.553 151.974 112.553ZM181.443 102.092C181.443 103.016 181.146 104.605 180.552 106.86C179.958 109.115 179.661 110.589 179.661 111.282C179.661 111.975 179.76 112.322 179.959 112.322C180.09 112.322 180.596 112.113 181.477 111.695L181.872 111.497L182.433 112.652C182.235 112.828 181.971 113.048 181.641 113.312C181.311 113.576 180.695 113.933 179.793 114.384C178.892 114.835 178.056 115.061 177.285 115.061C176.515 115.061 175.91 114.824 175.471 114.351C175.03 113.878 174.81 113.24 174.81 112.437C174.81 111.634 175.085 110.204 175.635 108.147C176.185 106.09 176.46 104.754 176.46 104.138C176.46 103.214 176.174 102.345 175.602 101.531L175.305 101.135L175.338 100.706C176.504 100.376 178.396 100.211 181.014 100.211C181.3 100.541 181.443 101.168 181.443 102.092ZM177.681 96.597C177.241 96.1683 177.021 95.591 177.021 94.865C177.021 94.139 177.324 93.501 177.929 92.951C178.534 92.401 179.232 92.126 180.024 92.126C180.816 92.126 181.432 92.346 181.872 92.786C182.312 93.226 182.532 93.8033 182.532 94.518C182.532 95.2333 182.219 95.866 181.592 96.416C180.965 96.966 180.266 97.241 179.496 97.241C178.726 97.241 178.121 97.0263 177.681 96.597ZM190.155 100.442H193.224C193.18 100.926 192.982 101.564 192.63 102.356C191.794 102.268 190.969 102.224 190.155 102.224H190.023C189.561 107.658 189.132 111.673 188.736 114.269C188.34 116.865 187.823 118.68 187.185 119.714C186.393 119.692 185.574 119.587 184.727 119.4C183.88 119.213 183.302 119.021 182.994 118.823C183.522 117.195 184.056 114.742 184.595 111.464C185.134 108.186 185.48 105.161 185.634 102.389C185.018 102.433 184.336 102.51 183.588 102.62C183.522 102.334 183.489 102.042 183.489 101.745C183.489 101.448 183.533 101.014 183.621 100.442H185.733C185.777 98.528 185.876 97.076 186.03 96.086C186.294 94.326 186.905 92.9453 187.862 91.944C188.819 90.9433 190.056 90.443 191.574 90.443C192.542 90.443 193.307 90.6573 193.868 91.086C194.429 91.5153 194.709 92.192 194.709 93.116C194.709 94.04 194.291 95.2333 193.455 96.696C192.619 98.1593 191.519 99.408 190.155 100.442ZM190.221 98.363C191.079 97.637 191.75 96.834 192.234 95.954C192.718 95.074 192.96 94.2763 192.96 93.561C192.96 92.8463 192.729 92.489 192.267 92.489C191.3 92.489 190.684 93.6 190.419 95.822C190.331 96.57 190.265 97.417 190.221 98.363ZM199.824 100.442H202.894C202.85 100.926 202.652 101.564 202.3 102.356C201.463 102.268 200.638 102.224 199.824 102.224H199.693C199.23 107.658 198.801 111.673 198.406 114.269C198.01 116.865 197.493 118.68 196.854 119.714C196.062 119.692 195.243 119.587 194.396 119.4C193.549 119.213 192.972 119.021 192.663 118.823C193.191 117.195 193.725 114.742 194.264 111.464C194.803 108.186 195.15 105.161 195.304 102.389C194.687 102.433 194.005 102.51 193.258 102.62C193.191 102.334 193.158 102.042 193.158 101.745C193.158 101.448 193.202 101.014 193.29 100.442H195.402C195.446 98.528 195.545 97.076 195.699 96.086C195.964 94.326 196.574 92.9453 197.531 91.944C198.488 90.9433 199.726 90.443 201.243 90.443C202.211 90.443 202.976 90.6573 203.537 91.086C204.098 91.5153 204.378 92.192 204.378 93.116C204.378 94.04 203.96 95.2333 203.124 96.696C202.289 98.1593 201.189 99.408 199.824 100.442ZM199.89 98.363C200.748 97.637 201.419 96.834 201.903 95.954C202.387 95.074 202.629 94.2763 202.629 93.561C202.629 92.8463 202.398 92.489 201.937 92.489C200.969 92.489 200.353 93.6 200.088 95.822C200 96.57 199.934 97.417 199.89 98.363ZM202.795 108.956C202.795 106.206 203.625 104.033 205.286 102.438C206.947 100.843 208.834 100.046 210.946 100.046C212.243 100.046 213.31 100.365 214.147 101.003C214.983 101.641 215.401 102.493 215.401 103.56C215.401 104.627 215.131 105.524 214.592 106.25C214.053 106.976 213.399 107.537 212.629 107.933C211.066 108.703 209.636 109.187 208.338 109.385L207.547 109.484C207.701 111.552 208.548 112.586 210.088 112.586C210.616 112.586 211.177 112.454 211.771 112.19C212.365 111.926 212.827 111.662 213.157 111.398L213.652 111.002L214.444 112.058C214.268 112.3 213.916 112.619 213.388 113.015C212.86 113.411 212.365 113.741 211.903 114.005C210.627 114.709 209.23 115.061 207.712 115.061C206.194 115.061 204.995 114.522 204.115 113.444C203.235 112.366 202.795 110.87 202.795 108.956ZM207.514 107.867C208.636 107.669 209.527 107.196 210.187 106.448C210.847 105.7 211.177 104.732 211.177 103.544C211.177 102.356 210.825 101.762 210.121 101.762C209.285 101.762 208.641 102.471 208.19 103.89C207.739 105.309 207.514 106.635 207.514 107.867ZM216.754 114.764H216.523C216.479 114.588 216.457 114.186 216.457 113.559C216.457 112.932 216.754 111.244 217.348 108.494C217.942 105.744 218.239 104.171 218.239 103.775C218.239 103.093 217.931 102.345 217.315 101.531L217.017 101.135L217.051 100.706C218.239 100.376 220.142 100.211 222.76 100.211C223.024 100.783 223.156 101.586 223.156 102.62C223.398 102.224 223.904 101.696 224.674 101.036C225.444 100.376 226.236 100.046 227.05 100.046C228.238 100.046 228.832 101.08 228.832 103.148C228.721 103.28 228.573 103.45 228.386 103.659C228.199 103.868 227.825 104.16 227.264 104.534C226.703 104.908 226.158 105.139 225.631 105.227C225.609 105.227 225.422 104.93 225.07 104.336C224.717 103.742 224.453 103.445 224.278 103.445C223.728 103.643 223.244 103.973 222.826 104.435C221.814 108.989 221.308 111.937 221.308 113.279C221.308 113.763 221.319 114.104 221.341 114.302C220.571 114.61 219.042 114.764 216.754 114.764ZM227.974 108.956C227.974 106.206 228.804 104.033 230.465 102.438C232.126 100.843 234.013 100.046 236.124 100.046C237.423 100.046 238.49 100.365 239.326 101.003C240.162 101.641 240.58 102.493 240.58 103.56C240.58 104.627 240.31 105.524 239.771 106.25C239.232 106.976 238.578 107.537 237.808 107.933C236.246 108.703 234.816 109.187 233.517 109.385L232.726 109.484C232.88 111.552 233.727 112.586 235.267 112.586C235.795 112.586 236.356 112.454 236.95 112.19C237.544 111.926 238.006 111.662 238.336 111.398L238.831 111.002L239.623 112.058C239.447 112.3 239.095 112.619 238.567 113.015C238.039 113.411 237.544 113.741 237.082 114.005C235.806 114.709 234.409 115.061 232.891 115.061C231.373 115.061 230.174 114.522 229.294 113.444C228.414 112.366 227.974 110.87 227.974 108.956ZM232.693 107.867C233.815 107.669 234.706 107.196 235.366 106.448C236.026 105.7 236.356 104.732 236.356 103.544C236.356 102.356 236.004 101.762 235.3 101.762C234.464 101.762 233.82 102.471 233.369 103.89C232.918 105.309 232.693 106.635 232.693 107.867ZM242.164 114.764H241.537C241.537 113.73 241.85 111.75 242.477 108.824C243.104 105.898 243.418 104.237 243.418 103.841C243.418 103.115 243.11 102.345 242.494 101.531L242.197 101.135L242.23 100.706C243.418 100.376 245.321 100.211 247.939 100.211C248.225 100.585 248.379 101.267 248.401 102.257C250.315 100.783 251.932 100.046 253.252 100.046C254.044 100.046 254.676 100.321 255.149 100.871C255.622 101.421 255.859 102.108 255.859 102.933C255.859 103.758 255.606 105.183 255.1 107.207C254.594 109.231 254.341 110.589 254.341 111.282C254.341 111.975 254.429 112.322 254.605 112.322C254.737 112.322 255.199 112.113 255.991 111.695L256.386 111.497L256.981 112.652C256.782 112.828 256.518 113.048 256.188 113.312C255.859 113.576 255.248 113.933 254.357 114.384C253.466 114.835 252.669 115.061 251.965 115.061C250.359 115.061 249.556 114.148 249.556 112.322C249.556 111.552 249.803 110.133 250.298 108.065C250.793 105.997 251.041 104.666 251.041 104.072C251.041 103.478 250.854 103.181 250.48 103.181C249.842 103.181 249.061 103.456 248.137 104.006C248.071 104.38 247.851 105.37 247.477 106.976C246.707 110.43 246.322 112.872 246.322 114.302C245.552 114.61 244.166 114.764 242.164 114.764ZM265.627 101.696C264.747 101.696 264.043 102.427 263.515 103.89C262.986 105.353 262.722 106.921 262.722 108.593C262.722 111.233 263.536 112.553 265.165 112.553C265.693 112.553 266.254 112.426 266.847 112.173C267.442 111.92 267.915 111.673 268.267 111.431L268.762 111.035L269.52 112.058C269.345 112.3 268.993 112.619 268.465 113.015C267.937 113.411 267.442 113.741 266.98 114.005C266.518 114.269 265.924 114.511 265.198 114.731C264.472 114.951 263.757 115.061 263.053 115.061C261.337 115.061 260.05 114.5 259.192 113.378C258.333 112.256 257.904 110.749 257.904 108.857C257.904 106.239 258.625 104.116 260.066 102.488C261.507 100.86 263.361 100.046 265.627 100.046C267.101 100.046 268.272 100.381 269.141 101.052C270.01 101.723 270.445 102.548 270.445 103.527C270.445 104.506 270.137 105.348 269.52 106.052C268.971 106.052 268.333 105.931 267.607 105.689C266.881 105.447 266.331 105.15 265.957 104.798L266.452 101.894C266.254 101.762 265.979 101.696 265.627 101.696ZM271.006 108.956C271.006 106.206 271.836 104.033 273.497 102.438C275.158 100.843 277.045 100.046 279.157 100.046C280.455 100.046 281.522 100.365 282.358 101.003C283.194 101.641 283.612 102.493 283.612 103.56C283.612 104.627 283.342 105.524 282.803 106.25C282.264 106.976 281.61 107.537 280.84 107.933C279.277 108.703 277.847 109.187 276.549 109.385L275.758 109.484C275.912 111.552 276.759 112.586 278.299 112.586C278.827 112.586 279.388 112.454 279.982 112.19C280.576 111.926 281.038 111.662 281.368 111.398L281.863 111.002L282.655 112.058C282.479 112.3 282.127 112.619 281.599 113.015C281.071 113.411 280.576 113.741 280.114 114.005C278.838 114.709 277.441 115.061 275.923 115.061C274.404 115.061 273.205 114.522 272.326 113.444C271.446 112.366 271.006 110.87 271.006 108.956ZM275.725 107.867C276.847 107.669 277.738 107.196 278.398 106.448C279.058 105.7 279.388 104.732 279.388 103.544C279.388 102.356 279.036 101.762 278.332 101.762C277.496 101.762 276.852 102.471 276.401 103.89C275.95 105.309 275.725 106.635 275.725 107.867ZM286.846 115.061C286.076 115.061 285.482 114.83 285.064 114.368C284.646 113.906 284.437 113.29 284.437 112.52C284.437 111.75 284.723 111.084 285.295 110.523C285.867 109.962 286.543 109.682 287.324 109.682C288.105 109.682 288.705 109.907 289.123 110.358C289.541 110.809 289.75 111.414 289.75 112.173C289.75 112.932 289.458 113.603 288.875 114.186C288.292 114.769 287.616 115.061 286.846 115.061ZM292.819 92.753C292.819 94.931 292.104 98.352 290.674 103.016C290.564 103.39 290.36 104.066 290.063 105.045C289.766 106.024 289.541 106.778 289.386 107.306C288.793 107.504 288.27 107.603 287.819 107.603C287.368 107.603 286.967 107.581 286.615 107.537C287.407 102.763 287.803 98.55 287.803 94.898L287.605 92.126C289.475 91.532 291.147 91.235 292.621 91.235C292.753 91.433 292.819 91.939 292.819 92.753ZM119.502 116.249C118.182 116.249 117.088 115.814 116.219 114.945C115.35 114.076 114.915 113.064 114.915 111.909C114.915 110.754 115.19 109.676 115.74 108.675C116.29 107.674 117.077 106.745 118.1 105.887C119.123 105.029 120.459 104.319 122.109 103.758C123.759 103.197 125.585 102.884 127.587 102.818C128.753 99.936 129.787 96.713 130.689 93.149C130.711 93.017 130.722 92.8463 130.722 92.637C130.722 92.4283 130.612 92.247 130.392 92.093V91.763C132.284 91.411 134.011 91.235 135.573 91.235L137.553 91.367C138.125 92.379 138.444 93.7813 138.51 95.574C138.576 97.3673 138.62 100.475 138.642 104.897C141.018 105.931 143.053 107.24 144.747 108.824C144.659 109.11 144.489 109.39 144.236 109.665C143.983 109.94 143.746 110.144 143.526 110.276L143.196 110.474C141.898 109.198 140.391 108.109 138.675 107.207C138.719 108.461 138.84 109.517 139.038 110.375C139.346 111.783 139.709 112.487 140.127 112.487C140.369 112.487 140.655 112.432 140.985 112.322L141.48 113.609C139.962 114.577 138.51 115.061 137.124 115.061C134.836 115.061 133.692 113.334 133.692 109.88V105.557C132.152 105.183 130.755 104.952 129.501 104.864C126.641 112.454 123.308 116.249 119.502 116.249ZM126.762 104.831C124.276 105.029 122.208 105.898 120.558 107.438C118.908 108.978 118.083 110.419 118.083 111.761C118.083 113.103 118.6 113.774 119.634 113.774C121.746 113.774 124.122 110.793 126.762 104.831ZM133.329 93.875C133.285 93.853 133.197 93.842 133.065 93.842C132.933 93.842 132.845 93.853 132.801 93.875C132.603 95.547 131.745 98.55 130.227 102.884C131.305 102.95 132.46 103.104 133.692 103.346C133.692 97.934 133.571 94.777 133.329 93.875ZM61.092 112.322L61.587 113.576C60.157 114.566 58.815 115.061 57.561 115.061C56.307 115.061 55.4217 114.764 54.905 114.17C54.3877 113.576 54.129 112.795 54.129 111.827C54.129 110.859 54.646 108.367 55.68 104.352C56.714 100.337 57.231 97.846 57.231 96.878C57.231 95.668 56.802 95.063 55.944 95.063C55.086 95.063 53.92 95.701 52.446 96.977C52.402 97.153 52.039 98.495 51.357 101.003C49.861 106.503 49.058 110.936 48.948 114.302C48.09 114.632 46.539 114.797 44.295 114.797H43.866C43.866 113.433 44.449 110.287 45.615 105.359C46.781 100.431 47.364 97.56 47.364 96.746C47.364 95.624 46.913 95.063 46.011 95.063C45.043 95.063 43.778 95.745 42.216 97.109C42.216 101.597 41.424 105.799 39.84 109.715C39.092 111.563 38.1187 113.064 36.92 114.219C35.7207 115.374 34.4887 115.952 33.224 115.952C31.9587 115.952 30.9687 115.572 30.254 114.813C29.5387 114.054 29.181 112.998 29.181 111.645C29.181 110.292 29.665 108.697 30.633 106.86C31.601 105.023 32.6297 103.45 33.719 102.141C34.8077 100.832 35.924 99.65 37.068 98.594C37.068 96.57 36.826 95.349 36.342 94.931C36.1 94.733 35.7537 94.634 35.303 94.634C34.8517 94.634 34.1917 94.832 33.323 95.228C32.4537 95.624 31.623 96.163 30.831 96.845L30.006 95.69C30.776 94.744 31.931 93.831 33.471 92.951C35.011 92.071 36.3807 91.631 37.58 91.631C38.7787 91.631 39.7247 91.9443 40.418 92.571C41.1107 93.1983 41.6 93.996 41.886 94.964C44.922 92.478 47.32 91.235 49.08 91.235C49.96 91.235 50.7137 91.51 51.341 92.06C51.9677 92.61 52.369 93.435 52.545 94.535C55.141 92.335 57.308 91.235 59.046 91.235C60.014 91.235 60.8337 91.62 61.505 92.39C62.1757 93.16 62.511 94.1993 62.511 95.508C62.511 96.8173 61.972 99.452 60.894 103.412C59.816 107.372 59.277 109.874 59.277 110.919C59.277 111.964 59.607 112.487 60.267 112.487C60.487 112.487 60.762 112.432 61.092 112.322ZM32.58 112.817C33.46 112.817 34.3347 111.722 35.204 109.533C36.0727 107.344 36.661 104.6 36.969 101.3C35.561 102.752 34.296 104.473 33.174 106.464C32.052 108.455 31.491 110.012 31.491 111.134C31.491 112.256 31.854 112.817 32.58 112.817ZM74.325 101.003C74.369 100.959 74.49 100.673 74.688 100.145C75.722 100.145 77.108 100.453 78.846 101.069C78.296 102.895 77.856 104.803 77.526 106.794C77.196 108.785 77.031 110.204 77.031 111.051C77.031 111.898 77.119 112.322 77.295 112.322C77.427 112.322 77.911 112.113 78.747 111.695L79.143 111.497L79.737 112.652C79.539 112.828 79.2807 113.048 78.962 113.312C78.6427 113.576 78.043 113.933 77.163 114.384C76.283 114.835 75.491 115.061 74.787 115.061C73.423 115.061 72.631 114.445 72.411 113.213C71.003 114.445 69.7327 115.061 68.6 115.061C67.4667 115.061 66.5097 114.621 65.729 113.741C64.9477 112.861 64.557 111.475 64.557 109.583C64.557 106.635 65.162 104.308 66.372 102.603C67.582 100.898 69.045 100.046 70.761 100.046C71.993 100.046 73.181 100.365 74.325 101.003ZM70.563 112.256C71.091 112.256 71.685 112.047 72.345 111.629C72.499 108.527 73.016 105.458 73.896 102.422C73.236 102.136 72.675 101.993 72.213 101.993C71.421 101.993 70.7447 102.768 70.184 104.319C69.6227 105.87 69.342 107.581 69.342 109.451C69.342 111.321 69.749 112.256 70.563 112.256ZM84.06 92.885C84.06 92.159 83.994 91.642 83.862 91.334C85.578 90.74 87.195 90.443 88.713 90.443C88.911 90.641 89.01 91.147 89.01 91.961C89.01 93.787 88.405 97.285 87.195 102.455C89.153 100.849 91.089 100.046 93.003 100.046C93.861 100.046 94.587 100.31 95.181 100.838C95.775 101.366 96.072 102.136 96.072 103.148C96.072 105.04 94.521 106.415 91.419 107.273C92.145 109.561 92.783 111.112 93.333 111.926C93.575 112.278 93.751 112.454 93.861 112.454C94.103 112.454 94.609 112.267 95.379 111.893L95.742 111.728L96.27 112.85C95.742 113.334 95.0107 113.823 94.076 114.318C93.1407 114.813 92.288 115.061 91.518 115.061C89.802 115.061 88.603 113.499 87.921 110.375C87.613 109.033 87.426 107.779 87.36 106.613C88.768 106.283 89.8187 105.881 90.512 105.408C91.2047 104.935 91.551 104.33 91.551 103.593C91.551 102.856 91.177 102.488 90.429 102.488C89.681 102.488 88.427 103.236 86.667 104.732C85.567 109.374 85.017 112.553 85.017 114.269C83.807 114.621 82.234 114.797 80.298 114.797C80.276 114.423 80.265 114.093 80.265 113.807C80.265 112.861 80.8977 109.627 82.163 104.105C83.4277 98.583 84.06 94.843 84.06 92.885ZM96.963 108.956C96.963 106.206 97.7937 104.033 99.455 102.438C101.116 100.843 103.002 100.046 105.114 100.046C106.412 100.046 107.479 100.365 108.315 101.003C109.151 101.641 109.569 102.493 109.569 103.56C109.569 104.627 109.3 105.524 108.761 106.25C108.222 106.976 107.567 107.537 106.797 107.933C105.235 108.703 103.805 109.187 102.507 109.385L101.715 109.484C101.869 111.552 102.716 112.586 104.256 112.586C104.784 112.586 105.345 112.454 105.939 112.19C106.533 111.926 106.995 111.662 107.325 111.398L107.82 111.002L108.612 112.058C108.436 112.3 108.084 112.619 107.556 113.015C107.028 113.411 106.533 113.741 106.071 114.005C104.795 114.709 103.398 115.061 101.88 115.061C100.362 115.061 99.163 114.522 98.283 113.444C97.403 112.366 96.963 110.87 96.963 108.956ZM101.682 107.867C102.804 107.669 103.695 107.196 104.355 106.448C105.015 105.7 105.345 104.732 105.345 103.544C105.345 102.356 104.993 101.762 104.289 101.762C103.453 101.762 102.81 102.471 102.359 103.89C101.908 105.309 101.682 106.635 101.682 107.867Z" fill="white"/>
<path d="M294.5 129.172H27.5V134.533H294.5V129.172Z" fill="#EBEBEB"/>
<path d="M45.384 186.24C44.648 186.24 44.056 186.016 43.608 185.568C43.16 185.088 42.936 184.48 42.936 183.744V154.56C42.936 153.824 43.144 153.248 43.56 152.832C44.008 152.384 44.616 152.16 45.384 152.16H62.568C64.104 152.16 64.872 152.832 64.872 154.176C64.872 155.52 64.104 156.192 62.568 156.192H47.832V166.8H61.608C63.144 166.8 63.912 167.472 63.912 168.816C63.912 170.16 63.144 170.832 61.608 170.832H47.832V183.744C47.832 184.512 47.608 185.12 47.16 185.568C46.744 186.016 46.152 186.24 45.384 186.24ZM72.2903 186C71.5223 186 70.9143 185.792 70.4663 185.376C70.0503 184.928 69.8423 184.336 69.8423 183.6V154.56C69.8423 153.824 70.0503 153.248 70.4663 152.832C70.9143 152.384 71.5223 152.16 72.2903 152.16H89.9543C90.6903 152.16 91.2503 152.336 91.6343 152.688C92.0503 153.04 92.2583 153.536 92.2583 154.176C92.2583 154.816 92.0503 155.312 91.6343 155.664C91.2503 155.984 90.6903 156.144 89.9543 156.144H74.6903V166.8H88.9943C89.7303 166.8 90.2903 166.976 90.6743 167.328C91.0903 167.68 91.2983 168.176 91.2983 168.816C91.2983 169.456 91.0903 169.952 90.6743 170.304C90.2903 170.656 89.7303 170.832 88.9943 170.832H74.6903V182.016H89.9543C91.4903 182.016 92.2583 182.672 92.2583 183.984C92.2583 184.624 92.0503 185.12 91.6343 185.472C91.2503 185.824 90.6903 186 89.9543 186H72.2903ZM100.368 186C99.6004 186 98.9924 185.792 98.5444 185.376C98.1284 184.928 97.9204 184.336 97.9204 183.6V154.56C97.9204 153.824 98.1284 153.248 98.5444 152.832C98.9924 152.384 99.6004 152.16 100.368 152.16H118.032C118.768 152.16 119.328 152.336 119.712 152.688C120.128 153.04 120.336 153.536 120.336 154.176C120.336 154.816 120.128 155.312 119.712 155.664C119.328 155.984 118.768 156.144 118.032 156.144H102.768V166.8H117.072C117.808 166.8 118.368 166.976 118.752 167.328C119.168 167.68 119.376 168.176 119.376 168.816C119.376 169.456 119.168 169.952 118.752 170.304C118.368 170.656 117.808 170.832 117.072 170.832H102.768V182.016H118.032C119.568 182.016 120.336 182.672 120.336 183.984C120.336 184.624 120.128 185.12 119.712 185.472C119.328 185.824 118.768 186 118.032 186H100.368ZM128.447 186C127.679 186 127.071 185.792 126.623 185.376C126.207 184.928 125.999 184.336 125.999 183.6V154.56C125.999 153.824 126.207 153.248 126.623 152.832C127.071 152.384 127.679 152.16 128.447 152.16H137.855C143.327 152.16 147.567 153.632 150.575 156.576C153.583 159.52 155.087 163.68 155.087 169.056C155.087 174.432 153.583 178.608 150.575 181.584C147.567 184.528 143.327 186 137.855 186H128.447ZM137.567 181.872C145.887 181.872 150.047 177.6 150.047 169.056C150.047 160.544 145.887 156.288 137.567 156.288H130.943V181.872H137.567ZM181.731 168.576C183.683 169.12 185.187 170.096 186.243 171.504C187.331 172.912 187.875 174.672 187.875 176.784C187.875 179.696 186.867 181.968 184.851 183.6C182.867 185.2 180.083 186 176.499 186H164.259C163.491 186 162.883 185.792 162.435 185.376C162.019 184.928 161.811 184.336 161.811 183.6V154.56C161.811 153.824 162.019 153.248 162.435 152.832C162.883 152.384 163.491 152.16 164.259 152.16H175.971C179.459 152.16 182.179 152.944 184.131 154.512C186.115 156.048 187.107 158.208 187.107 160.992C187.107 162.784 186.627 164.336 185.667 165.648C184.739 166.96 183.427 167.936 181.731 168.576ZM166.659 166.8H175.203C179.939 166.8 182.307 165.008 182.307 161.424C182.307 159.632 181.715 158.304 180.531 157.44C179.379 156.576 177.603 156.144 175.203 156.144H166.659V166.8ZM175.971 182.016C178.435 182.016 180.243 181.568 181.395 180.672C182.547 179.776 183.123 178.384 183.123 176.496C183.123 174.576 182.531 173.152 181.347 172.224C180.195 171.264 178.403 170.784 175.971 170.784H166.659V182.016H175.971ZM223.964 183.12C224.124 183.504 224.204 183.824 224.204 184.08C224.204 184.688 223.948 185.2 223.436 185.616C222.956 186.032 222.412 186.24 221.804 186.24C221.388 186.24 220.988 186.128 220.604 185.904C220.252 185.648 219.98 185.296 219.788 184.848L216.62 177.648H199.052L195.884 184.848C195.692 185.296 195.404 185.648 195.02 185.904C194.636 186.128 194.236 186.24 193.82 186.24C193.18 186.24 192.604 186.032 192.092 185.616C191.612 185.2 191.372 184.688 191.372 184.08C191.372 183.824 191.452 183.504 191.612 183.12L205.148 153.504C205.372 152.992 205.724 152.592 206.204 152.304C206.716 152.016 207.244 151.872 207.788 151.872C208.332 151.872 208.844 152.016 209.324 152.304C209.836 152.592 210.204 152.992 210.428 153.504L223.964 183.12ZM214.892 173.712L207.836 157.824L200.828 173.712H214.892ZM242.969 186.384C239.737 186.384 236.921 185.696 234.521 184.32C232.121 182.912 230.281 180.912 229.001 178.32C227.721 175.696 227.081 172.608 227.081 169.056C227.081 165.536 227.721 162.48 229.001 159.888C230.281 157.264 232.121 155.264 234.521 153.888C236.921 152.48 239.737 151.776 242.969 151.776C245.081 151.776 247.081 152.112 248.969 152.784C250.857 153.424 252.505 154.368 253.913 155.616C254.521 156.096 254.825 156.736 254.825 157.536C254.825 158.112 254.665 158.608 254.345 159.024C254.025 159.408 253.641 159.6 253.193 159.6C252.649 159.6 252.121 159.392 251.609 158.976C250.073 157.824 248.665 157.024 247.385 156.576C246.137 156.096 244.713 155.856 243.113 155.856C239.593 155.856 236.889 156.992 235.001 159.264C233.113 161.536 232.169 164.8 232.169 169.056C232.169 173.344 233.113 176.624 235.001 178.896C236.889 181.168 239.593 182.304 243.113 182.304C244.649 182.304 246.041 182.064 247.289 181.584C248.569 181.104 250.009 180.304 251.609 179.184C252.249 178.768 252.777 178.56 253.193 178.56C253.641 178.56 254.025 178.768 254.345 179.184C254.665 179.568 254.825 180.048 254.825 180.624C254.825 181.424 254.521 182.064 253.913 182.544C252.505 183.792 250.857 184.752 248.969 185.424C247.081 186.064 245.081 186.384 242.969 186.384ZM285.917 182.256C286.461 182.768 286.733 183.328 286.733 183.936C286.733 184.544 286.493 185.072 286.013 185.52C285.565 185.968 285.037 186.192 284.429 186.192C283.821 186.192 283.261 185.936 282.749 185.424L265.661 170.016V183.744C265.661 184.512 265.437 185.12 264.989 185.568C264.573 186.016 263.965 186.24 263.165 186.24C262.429 186.24 261.837 186.016 261.389 185.568C260.941 185.12 260.717 184.512 260.717 183.744V154.416C260.717 153.68 260.941 153.088 261.389 152.64C261.837 152.16 262.429 151.92 263.165 151.92C263.933 151.92 264.541 152.144 264.989 152.592C265.437 153.04 265.661 153.648 265.661 154.416V167.568L282.029 152.64C282.477 152.192 283.005 151.968 283.613 151.968C284.221 151.968 284.749 152.192 285.197 152.64C285.645 153.088 285.869 153.6 285.869 154.176C285.869 154.784 285.597 155.344 285.053 155.856L270.749 168.624L285.917 182.256Z" fill="white"/>
</svg>
